<svg version="1" xmlns="http://www.w3.org/2000/svg" width="1365.333" height="1365.333" viewBox="0 0 1024.000000 1024.000000"><path d="M0 512v512h1024V0H0v512zm813.6-276.5c9.1 10.7 78.4 95 78.4 95.5 0 .3-4.3 5.7-9.5 12s-9.1 11.8-8.7 12.2c.4.3 12 4.8 25.7 9.8 13.8 5.1 26.1 9.8 27.5 10.5 1.4.7 7 6.9 12.5 13.7l10 12.5 9.5 1.8c5.2 1 9.9 2.2 10.5 2.7.5.4-5.2.8-12.7.8h-13.5l-9.9-11.9-9.8-11.8-15.5-4.3c-8.6-2.3-16.4-4.5-17.5-4.8-1.1-.3.8 2.8 5.3 8.6 4 5 11.6 16.4 17 25.4l9.7 16.3 12.2 5.5c11.5 5.2 16.5 8.1 11.3 6.5-1.3-.4-8.7-2.1-16.4-3.9l-13.9-3.1-9.7-15.1c-8.2-13-11.9-17.6-25.8-32.2l-16.2-17-6.6 7.9-6.7 7.9-17.2-8.9c-39.9-20.6-66.4-34.1-67.3-34.1-.8 0-.5 5.9 3.1 52.5 2.5 31.7 4.3 55.8 6.7 87.6l2.2 29.7-25.9 31.3c-14.2 17.3-36.5 44.1-49.4 59.7l-23.5 28.3-46-.3c-25.3-.1-48.6-.4-51.7-.6l-5.7-.4-20.2-26.9-20.2-26.9-6.1 5.3c-3.3 2.9-17.2 14.7-30.9 26.1L474 624.1l-50.3-7.6c-61.6-9.3-56.4-8.3-57-10.5-.9-3.5-34.2-78-34.8-78-.4 0-15.5 15.3-33.5 34-18.1 18.7-33.5 34-34.3 34-1.1 0-14-3.9-41.3-12.6l-4.6-1.5-15.4-35.9-15.3-35.9-29.5 30.1-29.5 30.2-15.9-4-15.9-4-6.9-17.9c-14.6-38-36-95.7-35.6-96 .1-.2 3.7 3.6 7.8 8.4 37.6 44 60.3 70.1 60.9 70.1.4-.1 28.9-35.8 45.6-57.5.7-.8 6.3-2 15-3.1l14-1.8 9.6-8.8c5.3-4.8 10.1-8.8 10.5-8.8.7 0 26.1 10.8 27.2 11.6.2.1 4.2 15.2 8.8 33.5 4.7 18.3 8.6 33.4 8.7 33.6.2.1 10.5-12.4 23.1-27.7 19.5-23.9 23.3-28 26-28.5 1.7-.2 8.1-1.2 14.1-2.1l11-1.6 5.5-5.2c3-2.8 7.4-6.9 9.7-9l4.1-3.8 10.6 6.3 10.7 6.4 23.1 39c12.7 21.4 23.5 39.4 23.9 39.9.5.5 1.6 0 2.6-1.3 1-1.2 11.7-13.3 23.8-27l22-25h20.3l20.2-.1 18-15.5c9.9-8.5 18.5-15.5 19.1-15.5.5 0 13.9 6.3 29.7 14.1 15.8 7.8 30.1 14.7 31.8 15.5 2.7 1.1 4 3.3 9.9 16.1 3.7 8.1 8.1 17.8 9.9 21.5l3.1 6.8 6.4-10.8c3.6-5.9 18.2-29.8 32.4-53.2 23.4-38.2 26-42.9 25.8-46.5-.1-2.2-.8-14.1-1.6-26.5s-2.4-36.7-3.5-54c-1.1-17.3-2.2-33.1-2.5-35.1l-.5-3.6 22-12.8c12.1-6.9 22.8-13.4 23.9-14.3 1.1-1 4.7-10.2 8.6-22l6.8-20.4 28.5.3 28.5.3 4.3 5.1z"/></svg>